PathFileType	4	(X/Y/Z)	C:/Users/opensim2020/Desktop/walking_exp_matlab/subject01_walking12_straight_03.trc	
DataRate	CameraRate	NumFrames	NumMarkers	Units	OrigDataRate	OrigDataStartFrame	OrigNumFrames	
100.00	100.00	4	44	mm	100.00	1820	172	
Frame#	Time	LFHD			RFHD			LBHD			RBHD			C7			T10			CLAV			STRN			RBAK			LSHO			LUPA			LELB			LFRM			LWRA			LWRB			LFIN			RSHO			RUPA			RELB			RFRM			RWRA			RWRB			RFIN			LASI			RASI			LPSI			RPSI			LTHI			LKNE			LTIB			LANK			LHEE			LTOE			RTHI			RKNE			RTIB			RANK			RHEE			RTOE			*39			*40			*41			*42			*43			
		X1	Y1	Z1	X2	Y2	Z2	X3	Y3	Z3	X4	Y4	Z4	X5	Y5	Z5	X6	Y6	Z6	X7	Y7	Z7	X8	Y8	Z8	X9	Y9	Z9	X10	Y10	Z10	X11	Y11	Z11	X12	Y12	Z12	X13	Y13	Z13	X14	Y14	Z14	X15	Y15	Z15	X16	Y16	Z16	X17	Y17	Z17	X18	Y18	Z18	X19	Y19	Z19	X20	Y20	Z20	X21	Y21	Z21	X22	Y22	Z22	X23	Y23	Z23	X24	Y24	Z24	X25	Y25	Z25	X26	Y26	Z26	X27	Y27	Z27	X28	Y28	Z28	X29	Y29	Z29	X30	Y30	Z30	X31	Y31	Z31	X32	Y32	Z32	X33	Y33	Z33	X34	Y34	Z34	X35	Y35	Z35	X36	Y36	Z36	X37	Y37	Z37	X38	Y38	Z38	X39	Y39	Z39	X40	Y40	Z40	X41	Y41	Z41	X42	Y42	Z42	X43	Y43	Z43	X44	Y44	Z44	

44	0.430	-1127.32556	-322.52615	1663.91345	-1015.28339	-307.62210	1672.09912	-1117.09094	-439.12772	1621.00427	-997.31458	-426.19223	1628.19934	-1071.85803	-479.16348	1429.40015	-1049.80786	-519.52448	1136.45984	-1064.53198	-337.23874	1357.76233	-1059.90710	-297.01190	1202.90234	-986.61121	-540.00378	1238.87256	-1227.23145	-394.14679	1381.31372	-1305.97998	-418.06009	1194.35510	-1302.01013	-427.52985	1043.15833	-1323.62573	-382.39307	938.40906	-1305.58130	-294.94852	830.11285	-1326.35681	-350.35400	820.15607	-1337.42773	-299.11246	754.24768	-915.19287	-402.11282	1391.28711	-805.10437	-459.24438	1196.83350	-796.73767	-459.08209	1069.88623	-771.17584	-417.06268	954.09174	-802.40448	-327.87128	847.57910	-758.76233	-366.55289	842.63312	-765.33643	-319.02319	771.89429	-1145.15918	-337.47433	931.80463	-926.99146	-351.24115	930.64722	-1102.30518	-528.18347	939.40363	-957.67834	-534.09039	937.78430	-1198.65796	-340.20166	601.19672	-1178.07251	-335.36850	467.05853	-1186.73633	-387.52963	283.49460	-1135.22681	-423.33490	68.85394	-1083.96619	-470.29971	39.76901	-1141.05493	-276.48962	33.48209	-867.30225	-356.31436	595.57178	-883.69183	-333.87296	441.03351	-892.00220	-485.22482	353.78818	-945.01294	-640.34296	223.22844	-1006.52734	-690.92969	229.41997	-924.69824	-597.48285	87.61654	-1038.95313	-319.12469	1705.05933	-3101.94922	1973.24927	1023.69122	-3140.69727	2012.51172	1021.92554						 
45	0.440	-1127.29810	-311.49585	1664.27869	-1015.28394	-296.77899	1671.94897	-1117.22693	-428.25610	1622.03210	-997.43427	-415.45718	1628.93823	-1072.60095	-469.17490	1429.89697	-1051.01672	-510.07492	1137.09949	-1064.78369	-327.82437	1358.20581	-1060.76868	-287.66309	1203.31482	-987.92426	-530.75830	1239.47949	-1227.95190	-384.15952	1382.09900	-1307.33728	-406.63086	1195.44604	-1304.45447	-413.94061	1043.99756	-1326.26978	-366.00821	940.50354	-1308.24243	-275.73712	834.53870	-1329.30432	-330.83694	823.16473	-1340.57166	-277.71973	758.82159	-915.76398	-393.20282	1391.50195	-806.60284	-451.85306	1197.10669	-798.69476	-452.39838	1070.32178	-772.42889	-412.80481	954.02478	-802.84406	-325.46570	845.65729	-759.31903	-364.37366	841.69238	-765.42554	-319.07056	769.83264	-1146.83569	-328.56680	932.53485	-928.81946	-341.50888	931.76660	-1102.70654	-519.18561	939.96948	-957.83105	-524.15784	938.81500	-1199.20081	-335.27673	600.85876	-1178.64685	-332.16669	466.56799	-1186.85596	-385.73804	283.31693	-1135.07605	-423.05524	68.89685	-1083.79431	-470.17252	40.03074	-1141.17383	-276.30469	33.48980	-868.58069	-339.52094	597.81561	-885.35663	-314.21533	443.81421	-893.66467	-463.82349	354.24100	-946.49878	-616.93347	221.05659	-1007.87939	-667.97833	224.78934	-926.71027	-568.01495	87.09908	-1038.78748	-307.84976	1705.20251	-3102.04272	1973.14038	1023.69696	-3140.73877	2012.50281	1021.97235						 
46	0.450	-1127.14441	-300.49057	1664.57397	-1014.99963	-285.69080	1671.94763	-1117.26953	-417.52051	1623.07251	-997.47711	-404.77710	1629.52686	-1073.44617	-459.53607	1430.64197	-1052.09802	-500.65207	1137.74854	-1065.45447	-318.17029	1358.63342	-1061.58435	-278.25415	1203.75110	-989.14215	-521.49268	1240.05042	-1228.47498	-374.14600	1382.92712	-1308.68530	-395.35208	1196.58740	-1306.77405	-400.49341	1044.81567	-1328.77588	-349.74686	942.52002	-1310.93372	-256.61932	839.23969	-1331.88452	-311.35873	826.13269	-1343.64417	-256.38446	763.75537	-916.39087	-383.91278	1391.77905	-808.05725	-444.51700	1197.42810	-800.57928	-445.84119	1070.74756	-773.83148	-408.27747	954.00427	-803.51898	-323.24612	843.58954	-759.99768	-362.31970	840.61951	-765.49518	-318.86758	767.92200	-1148.60620	-319.75095	933.02679	-931.20966	-332.76675	932.42499	-1103.05798	-510.12830	940.53424	-958.16309	-514.68158	940.06274	-1199.72705	-330.24182	600.49377	-1179.36438	-329.13831	466.00208	-1187.05981	-384.11758	283.26938	-1134.99817	-422.78357	69.02361	-1083.69727	-470.09756	40.69897	-1141.09998	-276.15247	33.38097	-869.81104	-323.03510	600.34515	-886.83704	-295.12216	446.73111	-895.29004	-442.57532	354.04749	-948.41437	-592.15302	216.49759	-1009.18182	-644.37164	218.88264	-928.62939	-537.65863	85.68394	-1038.26404	-296.55197	1705.44836	-3101.95313	1973.08411	1023.65173	-3140.67310	2012.53174	1022.02472						 
47	0.460	-1126.84692	-289.48087	1664.86841	-1014.77295	-274.78271	1671.79272	-1117.25452	-406.84317	1624.04822	-997.45105	-394.16251	1630.12292	-1074.19592	-450.01556	1431.29480	-1053.25671	-491.16351	1138.33887	-1065.81958	-308.63193	1359.10559	-1062.29980	-268.85385	1204.19653	-990.32495	-512.30487	1240.59302	-1229.02917	-364.14993	1383.71094	-1309.86218	-384.27548	1197.71680	-1308.98792	-387.18768	1045.74011	-1331.23389	-333.58212	944.79633	-1313.50537	-237.65027	844.16644	-1334.53882	-291.92346	829.53876	-1346.49622	-235.20833	768.91125	-916.83496	-374.79727	1392.05066	-809.45642	-437.33594	1197.76367	-802.48370	-439.32434	1071.20557	-775.05988	-404.41626	953.85583	-803.73529	-321.38626	841.56384	-760.59546	-360.56006	839.74121	-765.34613	-318.19641	766.26343	-1150.20825	-310.80832	933.55640	-932.92175	-322.98398	933.58154	-1103.45190	-501.02469	941.10345	-958.35712	-504.39291	940.59436	-1200.28296	-324.90610	600.17584	-1180.05481	-326.07300	465.78494	-1187.43396	-382.80649	283.22510	-1134.91882	-422.50769	69.20068	-1083.51892	-469.81177	41.06978	-1141.17224	-276.01654	33.35094	-870.97467	-306.84744	602.93451	-888.41107	-276.29089	449.96875	-896.83563	-421.43719	353.11151	-950.15466	-567.19373	211.54158	-1010.53510	-620.34460	211.78889	-930.53693	-506.55875	83.82921	-1037.77710	-285.29962	1705.45557	-3102.00244	1973.14038	1023.67828	-3140.73218	2012.52502	1022.11676						 
